# xmcd
#
# Track frame offsets: 
#        150
#        23766
#        49235
#        68995
#        85199
#        109730
#        131055
#        157390
#        174840
#        199359
#        219452
#        243900
#
# Disc length: 3723 seconds
#
# Revision: 0
# Processed by: cddbd v1.5.2PL0 Copyright (c) Steve Scherf et al.
# Submitted via: ExactAudioCopy v1.3
#
DISCID=ab0e890c
DTITLE=Coyote Kings - Feelin' Lucky
DYEAR=2007
DGENRE=Blues Rock
TTITLE0=Backbone Shaker
TTITLE1=She Got The Motion
TTITLE2=Gris Gris
TTITLE3=Same Old Game
TTITLE4=Sweet Soul Music
TTITLE5=Trouble
TTITLE6=Baptize Me
TTITLE7=I Gotta Know
TTITLE8=Down With The Blues
TTITLE9=You Got It
TTITLE10=Show Them Your Love
TTITLE11=Sugar
EXTD=
EXTT0=
EXTT1=
EXTT2=
EXTT3=
EXTT4=
EXTT5=
EXTT6=
EXTT7=
EXTT8=
EXTT9=
EXTT10=
EXTT11=
PLAYORDER=
